<?xml version="1.0"?>
<svg width="640" height="480" xmlns="http://www.w3.org/2000/svg" xmlns:svg="http://www.w3.org/2000/svg">
 <!-- Created with SVG-edit - https://github.com/SVG-Edit/svgedit-->
 <g class="layer">
  <title>Layer 1</title>
  <rect fill="#00007f" height="375" id="svg_3" stroke="#e9f7dc" stroke-width="5" width="83" x="51" y="46"/>
  <ellipse cx="206" cy="64" fill="#aaff56" id="svg_4" rx="27" ry="38" stroke="#e9f7dc" stroke-width="5"/>
  <ellipse cx="207" cy="203" fill="#ff5656" id="svg_5" rx="24" ry="51" stroke="#e9f7dc" stroke-width="5" transform="matrix(1 0 0 1 0 0)"/>
  <ellipse cx="203" cy="342" fill="#ffff56" id="svg_6" rx="26" ry="58" stroke="#e9f7dc" stroke-width="5"/>
  <path d="m318,90c-0.995514,1.699997 -0.963776,2.639839 -1.436005,3.410667c-0.492737,0.804268 -0.982269,1.427406 -1.264008,2.051003c-0.427979,0.947273 -0.71286,1.745705 -0.94281,2.528496c-0.303131,1.03183 -0.259613,1.898735 -0.367859,2.824501c-0.112152,0.959221 -0.935577,1.469505 -0.989319,2.351997c-0.05069,0.832054 0.241028,2.381226 -0.647339,2.414505c-0.57785,0.021645 -0.352661,-1.345337 -0.352661,-2.267838c0,-0.673332 0.017151,-1.98027 -0.004486,-2.794495c-0.017578,-0.662025 -0.372772,-1.582832 -0.711517,-2.317505c-0.395111,-0.856972 0.059052,-1.879906 -0.30484,-2.680496c-0.351471,-0.773224 -0.978485,-1.322166 -0.979156,-2.220833c-0.000671,-0.900002 0.052917,-1.834747 -0.352661,-2.600006c-0.448303,-0.845894 -0.646667,-1.5 -0.647339,-2.399994c-0.000702,-0.956833 -0.052643,-0.130424 0.020844,0.720833c0.085144,0.98629 0.446564,1.753014 0.69516,2.493828c0.318054,0.947815 0.202301,1.889442 0.288483,2.789833c0.083588,0.873291 0.513702,1.48806 0.828857,2.528839c0.223724,0.738792 0.166656,1.694664 0.166656,1.066666c0,-0.900002 0.01709,-1.671463 0.357178,-2.561668c0.311249,-0.814713 0.753845,-1.755508 1.032166,-2.553001c0.182007,-0.521492 0.539581,-1.637238 0.599976,-2.435997c0.06723,-0.889366 -0.232117,-1.902916 0.177338,-2.849335c0.305511,-0.706192 0.756256,-1.399521 1.002686,-2.188004c0.319672,-1.022789 0.693024,-1.520088 1.125336,-2.302162c0.475281,-0.859802 0.285706,-1.82621 0.762482,-2.652664c0.467926,-0.811111 0.942841,-0.773834 0.942841,0.185661c0,0.718498 0,1.509003 0,2.535667c0,0.900665 0,1.921501 0,2.710831c0,0.725334 0.005463,1.800018 0,2.71067c-0.005341,0.889381 -0.725586,1.373924 -0.989319,2.110664c-0.299774,0.837364 -0.010681,1.789337 -0.010681,2.689339c0,0.899994 0.183289,1.854271 -0.166656,2.699997c-0.324677,0.78463 -0.911011,1.401955 -1.480682,2.052666c-0.416046,0.475235 -0.341156,-0.386177 -0.357147,-1.0625c-0.018341,-0.775925 -0.201172,-2.073524 -0.420837,-2.754166c-0.271454,-0.841118 -0.527374,-1.632179 -0.57019,-2.578835c-0.04068,-0.899094 -0.004486,-1.857162 -0.004486,-2.757164c0,-0.900002 0,-1.428001 0,-0.5c0,0.904495 0,1.766663 0,2.599998c0,0.9785 0,1.798668 0,2.699997c0,0.900002 0,1.800003 0,2.700005c0,0.900002 -0.153534,1.848457 0.166656,2.599998c0.332825,0.781204 0.470703,1.802422 1.258667,2.37867c0.45166,0.330292 0.576904,-0.87867 0.574677,-1.778671c-0.002258,-0.900009 -0.331207,-1.634094 -0.716003,-2.400002c-0.394867,-0.785927 -0.28186,-1.683998 -0.283997,-2.547333c-0.002258,-0.909004 -0.072327,-1.710007 -0.283997,-2.704666c-0.133179,-0.625793 -0.40506,-1.582001 -0.594513,-2.683495c-0.142365,-0.82769 -0.119232,-1.764503 -0.12149,-2.664505c-0.002258,-0.895508 -0.617828,-1.467621 -0.914673,-2.169334c-0.306488,-0.724503 0.13797,-2.429482 -0.585327,-2.3265c-0.85968,0.122398 -0.473969,1.618187 -0.489319,2.266502c-0.03067,1.295677 -0.010681,2.119499 -0.010681,2.844002c0,0.951996 0,1.737999 0,2.559998c0,1.05867 0,1.978668 0,2.73867c0,1.075996 0,1.986664 0,2.865334l0,-0.181335l0,-0.897331" fill="none" id="svg_7" stroke="#e9f7dc" stroke-width="5"/>
  <path d="m448,93c0,-1.800003 0,-2.624001 0,-1.856003c0,0.841499 0,1.571167 0,2.376839c0,0.825661 0.024597,1.979614 -0.004486,2.903168c-0.028534,0.90641 -0.420227,1.777634 -0.828857,2.575996c-0.408936,0.79895 -0.755615,1.864235 -1.59198,1.953331c-0.724976,0.077232 -0.630219,-1.305557 -1.149353,-1.978661c-0.456207,-0.591499 -0.345978,-1.63884 -0.482483,-2.322006c-0.184753,-0.924721 -0.84787,-1.749481 -0.942841,-2.652664c-0.079407,-0.755157 -0.347412,-1.661789 -0.704498,-2.404503c-0.384857,-0.800453 -0.885956,-1.537086 -1.174011,-2.573997c-0.194458,-0.699982 0.043701,-1.640694 -0.142334,-2.5215c-0.178986,-0.847389 -0.619904,-2.036224 -0.958313,-1.9375c-0.919983,0.268394 0.590607,1.599602 0.896484,2.554832c0.219177,0.684517 0.655243,1.65284 0.944,2.165337c0.496063,0.880394 0.990967,1.876854 1.252014,2.598663c0.258972,0.71608 0.475952,1.41349 0.720001,2.618668c0.165924,0.819397 0.237366,1.554756 0.450653,2.552002c0.203339,0.95079 0.40506,1.582001 0.594513,2.683495c0.142365,0.82769 0.081451,1.716385 0.454834,2.764503c0.202118,0.567329 0.537872,1.188904 0.815979,1.896004c0.559113,1.4216 0.705383,2.112549 0.778687,2.746666c0.096558,0.835297 -0.084045,2.092278 0.238647,2.85733c0.330017,0.782394 0.831085,1.585678 0.833344,0.900002c0.00293,-0.899994 0,-1.657166 0,-2.552666c0,-0.863335 0,-1.889 0,-2.847336c0,-0.858002 0.000641,-1.5 0,-2.447998c-0.000671,-1.004005 -0.023834,-1.837372 -0.166656,-3.052002c-0.050385,-0.428528 -0.185822,-1.416023 -0.258667,-1.952003c-0.148987,-1.096046 -0.235321,-1.63031 -0.40802,-3.047997c-0.118652,-0.97393 -0.161316,-1.679955 -0.166656,-2.666664c-0.003632,-0.669327 0,-1.434669 0,-2.622665c0,-1.044006 0.000427,-1.795502 0,-2.564171c-0.000671,-1.197166 0.046326,-1.816498 -0.057159,-2.731331c-0.10614,-0.938072 -0.747803,-1.646095 -0.885681,-2.477669c-0.153473,-0.925514 -0.057159,-1.794502 -0.057159,-2.734833c0,-0.830666 0.021149,0.120209 -0.020844,0.880669c-0.042816,0.775497 -0.192657,1.782234 -0.336334,2.579163c-0.15506,0.85994 -0.343018,1.737656 -0.444153,2.170837c-0.286316,1.226234 -0.592957,2.271919 -0.762665,2.873329c-0.323944,1.147888 -0.430664,1.907959 -0.436005,2.777336c-0.00531,0.863319 0.000549,1.879997 0,2.715996c-0.000671,0.997337 -0.56369,1.40361 -0.917328,0.592003c-0.249573,-0.572807 -0.412506,-1.792923 -0.652008,-2.701332c-0.138458,-0.525208 -0.293304,-1.084984 -0.615997,-2.282669c-0.167175,-0.620483 -0.340759,-1.243111 -0.64801,-2.474663c-0.288239,-1.155312 -0.412506,-1.699394 -0.625,-2.708336c-0.186584,-0.885971 -0.403717,-1.954704 -0.484497,-2.709831c-0.08194,-0.766106 -0.039825,-1.679375 -0.067841,-2.580505c-0.028625,-0.920227 -0.333923,-1.779915 -0.705322,-2.585327c-0.352966,-0.765472 -0.281738,-1.748497 -0.283997,-2.606339c-0.002472,-0.940331 -0.885681,-2.728569 0,-2.728668c0.686188,-0.000076 0.040192,1.460457 0.221344,2.34967c0.186554,0.915726 0.376862,1.555069 0.612,2.736c0.157104,0.789024 0.552734,1.638351 0.88266,2.300003c0.420563,0.843361 0.282043,1.819611 0.70932,2.599998c0.450378,0.822571 0.520233,1.70681 0.631836,2.41433c0.152924,0.969589 0.469208,1.699821 0.658844,2.503006c0.2341,0.991493 0.27066,1.932869 0.61734,2.849327c0.307678,0.813332 0.711151,1.311295 1.098663,2.149338c0.451843,0.977127 0.503937,1.691765 0.73465,2.850662c0.15686,0.787872 0.454071,1.560387 0.666687,2.5c0.186707,0.825134 0.166656,1.875999 0.166656,2.584c0,0.744003 -0.206848,1.838287 0.166656,2.749336c0.29422,0.717682 1.071808,1.464378 1.397339,2.174667c0.359619,0.784683 0.436005,1.825333 0.436005,2.625336c0,0.899994 0,1.785667 0,1.226662c0,-1.031998 0,-1.776001 0,-2.883835c0,-0.7575 0,-1.629494 0,-2.389496c0,-1.1745 0,-1.968002 0,-2.7435c0,-1.039169 0,-1.807167 0,-2.681831c0,-0.871002 0,-1.869667 0,-2.437004c0,-1.190666 0,-2.069664 0,-2.876663c0,-1.045006 0,-1.762505 0,-2.667l0,-0.863335l0,-0.963165" fill="none" id="svg_8" stroke="#e9f7dc" stroke-width="5"/>
  <path d="m272,140c0,1.825333 0,2.833328 0,3.695496c0,0.90451 0,1.804504 0,2.704498c0,0.900009 0,1.800003 0,2.700012c0,0.899994 0.094086,1.69487 0.5,2.399994c0.457275,0.794357 0.885193,1.638794 1.216003,2.300003c0.408875,0.817261 0.283997,1.742661 0.283997,2.699997c0,0.731995 -0.068909,1.857712 0.166656,2.666672c0.250916,0.86174 0.685913,1.662613 0.858673,2.530655c0.159088,0.799347 0.32782,1.660553 0.47467,2.302673c0.216736,0.94783 0.276215,1.983963 0.584015,2.796005c0.306305,0.80809 1.034729,1.739838 1.315979,2.486664c0.214447,0.569427 0.414459,1.201279 0.798676,2.598663c0.198151,0.720657 0.400024,1.414063 0.634674,2.618668c0.153473,0.787903 0.013123,1.748459 0.333313,2.5c0.332825,0.781204 0.803589,1.563568 1.166687,2.333328c0.327698,0.694687 0.895172,1.375656 1.333313,2.333344c0.359161,0.785019 0.145935,1.851898 0.390503,2.623489c0.258148,0.814453 0.847107,1.563477 0.942841,2.209839c0.148529,1.002853 0.954254,1.410614 1.563995,2.110672c0.581177,0.667267 0.390106,1.718216 0.861328,2.374664c0.444305,0.618942 0.25943,1.420898 0.585358,2.367996c0.263885,0.7668 0.59079,1.360855 1.02533,2.210663c0.356323,0.696823 1.341187,1.071899 1.797333,1.769333c0.458832,0.701569 0.747223,1.488663 1.166656,2.208344c0.495758,0.850647 0.576691,1.654678 1.100006,2.437164c0.470337,0.703262 0.999969,1.56366 1.299988,2.261169c0.299988,0.697495 0.985229,1.495056 1.600006,2.093323c0.597229,0.581192 1.230103,1.248672 1.833344,1.833344c0.697845,0.676361 1.075439,1.223892 1.575653,1.704834c0.859497,0.826401 1.18811,1.481003 1.57016,2.107666c0.537811,0.882111 1.146637,1.667526 1.904846,2.186157c0.774475,0.529755 1.381317,0.935852 1.873169,1.813339c0.404327,0.721298 0.457153,1.770081 1.044159,2.451996c0.579498,0.673187 1.550537,0.886078 1.998657,1.456009c0.697693,0.887344 0.917023,1.547897 1.521851,2.313492c0.503418,0.637222 1.185516,1.270416 2.011505,1.966507c0.626099,0.527634 1.317474,1.058487 1.666656,1.333328c0.694946,0.546982 1.67157,1.327667 2.481171,2.033829c0.459137,0.400482 1.332428,1.17897 2.018829,1.445343c0.959534,0.372375 1.708435,0.5616 2.403656,1.325333c0.488495,0.536621 1.231842,1.188583 1.829681,1.531494c0.668396,0.383392 1.393768,0.752945 2.444824,1.363663c0.660217,0.383621 1.523743,0.956207 2.049835,1.229675c1.071625,0.557022 2.032074,0.462723 2.723846,0.923325c0.694977,0.462753 1.399994,0.645081 2.41217,0.647339c0.935974,0.002075 1.835999,0 2.735992,0c0.899994,0 1.699982,0 2.600006,0c0.899994,0 1.799988,0 2.710663,0c0.910645,0 1.590393,-0.045792 2.567993,0.000168c0.908325,0.042709 1.654724,0.402206 2.537323,0.715836c0.83255,0.295853 1.788513,0.283997 2.650665,0.283997c0.833344,0 1.814941,-0.034332 2.566681,0.035995c0.938324,0.087784 1.975433,0.309372 2.745819,0.484833c0.755737,0.172134 1.674255,0.504272 2.394165,0.8685c0.943817,0.477493 1.547668,0.531189 2.647522,0.610672c0.772766,0.055847 1.828094,0.112534 2.559479,0.352661c0.735626,0.241516 1.688904,0.553223 2.419678,0.647339c1.168854,0.150528 1.784271,0.569397 2.82132,0.878494c0.657532,0.195984 1.664948,0.053802 2.488525,0.178665c0.973511,0.147598 1.683594,0.466522 2.42215,0.658844c1.087463,0.283173 1.968018,0.283997 2.868011,0.283997c0.899994,0 1.670105,0.020493 2.552673,0.352661c0.706207,0.265793 1.710815,0.629333 2.651825,0.647339c0.862,0.016495 1.695496,0 2.674316,0c0.831024,0 1.790131,-0.021072 2.521179,0.020828c0.733612,0.042053 1.820618,0.475754 2.467987,0.695175c1.009827,0.342285 1.817322,0.278656 2.865356,0.283997c0.718475,0.003662 1.676483,0 2.5,0c0.967499,0 1.645813,0 2.613312,0c1.005341,0 1.837341,0 3.053345,0c0.428162,0 1.420502,0 1.962677,0c1.121338,0 1.678497,-0.001236 3.203979,0c0.822662,0.000671 1.581512,0.005203 2.412018,0.035995c0.484955,0.017975 2.421417,0.129364 3.277161,0.185501c0.950928,0.062378 1.971832,0.133469 3.037506,0.214508c1.085999,0.082581 2.167023,0.170532 3.217499,0.268494c0.996185,0.092911 2.723907,0.286224 3.409821,0.39534c0.572632,0.091095 1.042786,0.187469 1.421997,0.28949c0.309204,0.083191 0.729034,0.350677 1.546661,0.525345c0.814331,0.173965 2.010681,0.085327 2.768005,0.085327c0.861328,0 1.326019,0 2.313354,0c0.518646,0 2.149994,0 2.707977,0c1.104004,0 1.638,0 2.640015,0c1.247986,0 2.113312,-0.042007 2.930328,0.057159c0.922852,0.112 1.826263,0.371414 2.475006,0.517502c1.174683,0.264526 1.978119,0.407333 2.842651,0.425339c0.83316,0.017349 1.812012,0 2.585999,0c0.900024,0 1.763336,0 2.726501,0c0.920837,0 1.820831,0 2.722168,0c0.965332,0 1.625214,0.048691 2.632019,0c0.883087,-0.042709 1.319824,-0.910782 2.053314,-0.998672c0.932098,-0.111679 1.950867,-0.160019 2.592499,-0.501328c0.821838,-0.437164 1.413879,-1.156174 2.083344,-1.5c0.893738,-0.459015 1.71048,-0.362411 2.375,-0.704498c0.953979,-0.491089 1.515686,-1.126801 2.367004,-1.304504c0.901703,-0.188217 1.55423,-0.813156 1.985657,-1.342834c0.683929,-0.839661 0.914764,-1.586914 1.772339,-2.296326c0.435638,-0.360367 1.169678,-0.785004 2.276154,-1.301178c0.827118,-0.385864 1.520996,-0.872086 1.951508,-1.402496c0.680878,-0.838867 1.014587,-1.838638 1.419678,-2.296326c0.601746,-0.679871 1.473572,-1.080368 2.174164,-1.605164c0.679138,-0.508728 1.110138,-1.271774 1.631989,-1.980011c0.592072,-0.803558 1.12738,-1.388489 1.584015,-2.309326c0.341614,-0.688889 0.517578,-1.496048 1.101318,-2.489334c0.383087,-0.651855 1.12738,-1.505432 1.446838,-1.973343c0.502472,-0.735962 0.838287,-1.756653 1.366516,-2.537323c0.423218,-0.625473 1.332336,-1.111801 1.755981,-1.600006c0.518494,-0.597534 1.059998,-1.329391 1.632019,-2.147995c0.6073,-0.86911 1.196533,-1.787323 1.483826,-2.248505c0.55722,-0.89447 0.826813,-1.31572 1.257507,-2.120834c0.633118,-1.183517 0.800873,-1.954208 1.141327,-2.82399c0.278259,-0.710938 0.830414,-1.482788 1.314667,-2.141342c0.620544,-0.843918 0.956879,-1.57782 1.500153,-2.3535c0.497803,-0.710724 1.076904,-1.347137 1.552521,-2.030991c0.533752,-0.767441 0.887909,-1.293152 1.460663,-2.303513c0.360718,-0.636337 0.772491,-1.664124 0.885315,-2.485321c0.123688,-0.900269 0.790955,-1.396851 1.43335,-2.001343c0.647034,-0.608856 1.057343,-1.425308 1.446655,-2.300171c0.329956,-0.74147 0.523712,-1.533218 0.837341,-2.415833c0.295837,-0.832504 0.210938,-1.833649 0.720001,-2.479996c0.582916,-0.740128 0.965332,-1.300797 1.264008,-2.060333c0.401611,-1.021301 0.736786,-1.678375 1.014648,-2.457001c0.376404,-1.05481 0.751282,-1.722748 1.164001,-2.58667c0.407318,-0.852646 0.54538,-1.590424 1.121338,-2.379166c0.467529,-0.640274 0.987396,-1.225403 1,-2.120834c0.012665,-0.900146 0.465942,-1.636078 0.878662,-2.5c0.407318,-0.852646 0.722626,-1.487228 1.096008,-2.299988c0.407501,-0.887039 0.646027,-1.720963 1.191986,-2.433334c0.506927,-0.661438 0.822662,-1.352005 0.834686,-2.281342l0.165314,-0.88533l0.480682,-0.699997" fill="none" id="svg_9" stroke="#e9f7dc" stroke-width="5"/>
 </g>
</svg>